# xmcd
#
# Track frame offsets: 
#        150
#        28926
#        43726
#        67170
#        93989
#        119259
#        147064
#        174646
#        194203
#        220057
#        244177
#        266897
#        290557
#        312869
#
# Disc length: 4417 seconds
#
# Revision: 1
# Processed by: cddbd v1.5.2PL0 Copyright (c) Steve Scherf et al.
# Submitted via: ExactAudioCopyFreeDBPlugin 1.0
#
DISCID=e2113f0e
DTITLE=Various Artist - Urban Smooth Jazz
DYEAR=2002
DGENRE=SMB
TTITLE0=Dotsero - If You Only Knew
TTITLE1=Jody Watley - Stay
TTITLE2=Bob Thompson - You Bedda Don't Do Dat
TTITLE3=Kevin Toney - Lovescape
TTITLE4=Dotsero - Everyday with You
TTITLE5=Richy Kicklighter - Lonely Road
TTITLE6=Bob Thompson - Magic in Your Heart
TTITLE7=Terry Burrus featuring Roy Ayers - Share My Dreams
TTITLE8=Dotsero - Portrait of Amy
TTITLE9=LSO - Down, Down, Down (ft Gerald Albright, saxophone)
TTITLE10=Richy Kicklighter - Wind in the Curtains
TTITLE11=Don Diego - Savannah
TTITLE12=Jody Watley - Lookin' for a New Love
TTITLE13=LSO - Blue Skies Brown Eyes (ft Smokey Robinson)
EXTD=
EXTT0=
EXTT1=
EXTT2=
EXTT3=
EXTT4=
EXTT5=
EXTT6=
EXTT7=
EXTT8=
EXTT9=
EXTT10=
EXTT11=
EXTT12=
EXTT13=
PLAYORDER=
